<svg width="118" height="42" viewBox="0 0 118 42" fill="none" xmlns="http://www.w3.org/2000/svg">
<path d="M84.8938 16.0511H80.8608V29.8032C80.8605 29.9285 80.8104 30.0486 80.7213 30.1372C80.6323 30.2258 80.5116 30.2757 80.3856 30.2759H77.2753C77.1494 30.2757 77.0287 30.2258 76.9396 30.1372C76.8506 30.0486 76.8004 29.9285 76.8002 29.8032V16.0511H72.7435C72.6824 16.0536 72.6214 16.0439 72.5642 16.0225C72.507 16.0011 72.4546 15.9685 72.4103 15.9266C72.366 15.8847 72.3306 15.8344 72.3062 15.7786C72.2818 15.7228 72.2689 15.6627 72.2683 15.6019V13.1695C72.2689 13.1086 72.2818 13.0486 72.3062 12.9928C72.3306 12.937 72.366 12.8867 72.4103 12.8448C72.4546 12.8029 72.507 12.7703 72.5642 12.7489C72.6214 12.7275 72.6824 12.7177 72.7435 12.7202H84.8928C85.0188 12.7144 85.1419 12.7583 85.2354 12.8425C85.3288 12.9267 85.385 13.0442 85.3916 13.1695V15.6029C85.3848 15.7278 85.3286 15.8449 85.2354 15.9289C85.1422 16.0128 85.0194 16.0567 84.8938 16.0511Z" fill="#F71963"/>
<path d="M97.8407 30.1769C97.0097 30.2946 95.6118 30.4839 93.0476 30.4839C89.9847 30.4839 87.2786 29.7041 87.2786 25.4052V17.5586C87.2786 13.2597 90.0093 12.5035 93.0713 12.5035C95.6345 12.5035 97.0097 12.6928 97.8407 12.8105C98.173 12.8576 98.3159 12.9762 98.3159 13.2832V15.4832C98.3157 15.6085 98.2655 15.7286 98.1765 15.8172C98.0874 15.9058 97.9667 15.9557 97.8407 15.956H92.8347C91.7187 15.956 91.3155 16.3336 91.3155 17.5625V19.7125H97.6515C97.7774 19.7128 97.8981 19.7627 97.9872 19.8513C98.0762 19.9399 98.1264 20.06 98.1266 20.1853V22.4294C98.1264 22.5547 98.0762 22.6748 97.9872 22.7634C97.8981 22.852 97.7774 22.9019 97.6515 22.9021H91.3155V25.4062C91.3155 26.6341 91.7187 27.0127 92.8347 27.0127H97.8407C97.9667 27.013 98.0874 27.0629 98.1765 27.1515C98.2655 27.2401 98.3157 27.3602 98.3159 27.4855V29.6825C98.3159 29.9876 98.173 30.1298 97.8407 30.1769Z" fill="#F71963"/>
<path d="M115.754 30.271H111.979C111.671 30.271 111.528 30.173 111.362 29.917L108.089 24.7471L105.124 29.8032C104.957 30.0866 104.792 30.2759 104.532 30.2759H101.019C100.781 30.2759 100.663 30.1337 100.663 29.9689C100.668 29.9111 100.684 29.8548 100.71 29.8032L105.853 21.2701L100.657 13.1675C100.631 13.1243 100.615 13.0756 100.61 13.0253C100.618 12.9385 100.66 12.8583 100.726 12.8012C100.792 12.744 100.878 12.7144 100.966 12.7183H104.788C105.049 12.7183 105.239 12.9547 105.379 13.1675L108.417 17.9392L111.356 13.1675C111.475 12.9547 111.689 12.7183 111.948 12.7183H115.461C115.549 12.7144 115.635 12.744 115.701 12.8012C115.767 12.8583 115.809 12.9385 115.817 13.0253C115.812 13.0756 115.796 13.1243 115.77 13.1675L110.599 21.3201L115.992 29.8032C116.034 29.8753 116.058 29.9563 116.063 30.0396C116.064 30.1769 115.944 30.271 115.754 30.271Z" fill="#F71963"/>
<path d="M66.5781 12.7673C66.4933 12.7676 66.4112 12.797 66.3458 12.8507C66.2804 12.9043 66.2357 12.9788 66.2193 13.0616L62.7728 25.7524C62.7255 26.0123 62.6545 26.1065 62.4406 26.1065C62.2266 26.1065 62.1557 26.0084 62.1083 25.7524L58.6579 13.0586C58.6415 12.9759 58.5968 12.9014 58.5314 12.8477C58.466 12.7941 58.3839 12.7646 58.2991 12.7644H54.9069C54.8517 12.7645 54.7973 12.7769 54.7476 12.8008C54.6979 12.8247 54.6543 12.8594 54.62 12.9024C54.5857 12.9454 54.5616 12.9955 54.5495 13.0491C54.5374 13.1026 54.5375 13.1582 54.55 13.2117C54.55 13.2117 58.7595 27.766 58.8058 27.9092C59.3677 29.6433 60.7311 30.4721 62.4662 30.4721C64.1185 30.4721 65.5607 29.6041 66.1246 27.9141C66.1916 27.718 70.3075 13.2107 70.3075 13.2107C70.3198 13.1573 70.3198 13.1018 70.3076 13.0484C70.2954 12.995 70.2713 12.945 70.237 12.9021C70.2027 12.8592 70.1592 12.8246 70.1096 12.8008C70.06 12.7769 70.0057 12.7645 69.9506 12.7644L66.5781 12.7673Z" fill="#F71963"/>
<path d="M45.6776 0H8.80763C5.94872 0 4.11804 3.02386 5.45581 5.5377L9.1438 12.4858H2.45791C2.0345 12.4859 1.6183 12.5949 1.24962 12.802C0.880939 13.0092 0.572279 13.3075 0.353533 13.6682C0.134787 14.0289 0.0133699 14.4397 0.00104248 14.8608C-0.0112849 15.2818 0.0858942 15.699 0.283168 16.0717L12.1456 38.4098C12.3548 38.8027 12.6675 39.1314 13.0504 39.3607C13.4332 39.59 13.8716 39.7112 14.3184 39.7112C14.7652 39.7112 15.2036 39.59 15.5864 39.3607C15.9693 39.1314 16.2821 38.8027 16.4912 38.4098L19.7129 32.3758L23.7548 39.9889C25.1773 42.6666 29.0309 42.6715 30.4584 39.9968L48.9387 5.39744C50.245 2.9503 48.4626 0 45.6776 0ZM29.1157 14.7829L21.1472 29.7051C21.008 29.9663 20.7998 30.1849 20.5451 30.3374C20.2904 30.4898 19.9988 30.5703 19.7015 30.5703C19.4043 30.5703 19.1127 30.4898 18.858 30.3374C18.6032 30.1849 18.3951 29.9663 18.2558 29.7051L10.3643 14.8457C10.2324 14.5979 10.167 14.3205 10.1745 14.0402C10.182 13.76 10.2621 13.4864 10.4071 13.246C10.552 13.0056 10.7569 12.8065 11.0019 12.668C11.2469 12.5295 11.5237 12.4562 11.8055 12.4554H27.7099C27.9846 12.4554 28.2547 12.5262 28.4938 12.6608C28.733 12.7954 28.933 12.9892 29.0745 13.2235C29.216 13.4578 29.2942 13.7246 29.3014 13.9978C29.3086 14.2711 29.2446 14.5415 29.1157 14.7829Z" fill="#F71963"/>
</svg>
